<svg width="100" height="100" viewBox="0 0 100 100" fill="none" xmlns="http://www.w3.org/2000/svg">
<path d="M77.4184 17.3561L68.2854 16C68.0035 16 67.7216 16.0001 67.7216 16.2491L63.8316 21.1473C63.6317 21.4711 63.5427 21.8493 63.5778 22.2264C63.5778 22.5031 63.2961 23.0566 63.0142 22.7799L59.9698 21.9774C59.4061 21.9774 58.8705 21.9774 58.5886 22.5032L46.1293 38.2768C45.8474 38.5535 45.5656 38.5535 45.03 38.5535L40.3225 36.3674C40.1182 36.2329 39.8778 36.1611 39.6319 36.1611C39.3859 36.1611 39.1456 36.2329 38.9413 36.3674L36.4325 38C36.2296 38.138 35.9887 38.2121 35.7419 38.2121C35.495 38.2121 35.2541 38.138 35.0513 38L33.9521 37.4465C33.7699 37.3667 33.5726 37.3251 33.3731 37.3242C33.1736 37.3233 32.9763 37.3631 32.7933 37.4412C32.6104 37.5193 32.4459 37.634 32.3106 37.7779C32.1752 37.9217 32.0719 38.0916 32.0071 38.2768L31.1895 42.068C31.0834 42.4707 31.1049 42.8957 31.2509 43.2862C31.3969 43.6768 31.6607 44.0143 32.0071 44.2541L34.2339 45.61L40.0407 49.1522L42.8595 50.7848C43.2493 51.0032 43.6999 51.0942 44.1459 51.0444C44.5919 50.9947 45.0101 50.8068 45.3401 50.5081L50.0475 46.4401C50.4699 46.1891 50.9686 46.0913 51.4569 46.1635L52.8381 46.9659C53.3737 47.2427 53.9374 47.2427 54.2193 46.6893L56.6999 44.5307C56.872 44.349 57.0977 44.2246 57.3454 44.175C57.5931 44.1254 57.8504 44.153 58.0812 44.2541L61.6893 45.8868C62.253 46.1636 62.7887 45.8867 63.3524 45.61L65.0155 43.4516L77.4746 27.678C78.0102 26.8479 77.7566 25.7686 76.629 25.7686L73.8102 25.2428C73.2464 25.2428 72.9927 24.4126 73.2464 23.8592L77.7002 18.7121C78.264 18.1586 77.954 17.3561 77.4184 17.3561Z" fill="white"/>
<path d="M32.5378 50.2493C32.2559 49.9726 31.974 50.2492 31.974 50.5259L33.3552 54.0405V54.8706L32.256 59.4919C32.2378 59.6379 32.2538 59.7861 32.3026 59.9252C32.3515 60.0642 32.4319 60.1906 32.5378 60.2945L35.8358 62.7573C35.9978 62.8785 36.1959 62.9443 36.3996 62.9443C36.6033 62.9443 36.8014 62.8785 36.9634 62.7573L40.5434 59.7688C40.6548 59.6641 40.7882 59.585 40.9345 59.5372C41.0807 59.4893 41.236 59.4738 41.389 59.4919L45.2508 58.9386C45.5327 58.9386 45.5327 58.6618 45.2508 58.3851L32.5378 50.2493Z" fill="white"/>
<path d="M34.7694 60.8302C34.7223 60.7672 34.6606 60.7161 34.5896 60.6809C34.5186 60.6456 34.4402 60.6273 34.3607 60.6273C34.2811 60.6273 34.2027 60.6456 34.1317 60.6809C34.0607 60.7161 33.9992 60.7672 33.952 60.8302L31.1332 62.1861C31.0584 62.1861 30.9867 62.2153 30.9338 62.2672C30.8809 62.3191 30.8512 62.3895 30.8512 62.4629L24.7626 77.1295H25.0444L26.4256 76.6037V76.8804L22 83.9371C22 84.2138 22.0001 84.2138 22.2538 84.2138L37.7574 68.717C38.0393 68.717 38.0392 68.4403 38.0392 68.1635L38.3212 64.0955C38.3212 63.8188 38.3211 63.5422 38.0392 63.5422L34.7694 60.8302Z" fill="white"/>
</svg>
